HIERARCHY
ROOT root
{
	OFFSET	0	13.1	24.9
	CHANNELS 6  Xposition Yposition Zposition Xrotation Yrotation Zrotation
	JOINT spine_1
	{
		OFFSET	0	9.99999	0
		CHANNELS 3  Xrotation Yrotation Zrotation
		JOINT spine_2
		{
			OFFSET	0	112	-10
			CHANNELS 3  Xrotation Yrotation Zrotation
			JOINT spine_3
			{
				OFFSET	0	206.5	19.3
				CHANNELS 3  Xrotation Yrotation Zrotation
				JOINT spine_4
				{
					OFFSET	0	110.4	14.6
					CHANNELS 3  Xrotation Yrotation Zrotation
					JOINT neck_1
					{
						OFFSET	0	71.8	-50.3
						CHANNELS 3  Xrotation Yrotation Zrotation
						JOINT neck_2
						{
							OFFSET	0	86.2	-25.8
							CHANNELS 3  Xrotation Yrotation Zrotation
							JOINT head_ee
							{
								OFFSET	0	179.8	-8.7
								CHANNELS 3  Xrotation Yrotation Zrotation
								End Site
								{
									OFFSET	1	0	0
								}
							}
						}
					}
					JOINT left_clavicle
					{
						OFFSET	-43.2	22.4	-70.8
						CHANNELS 3  Xrotation Yrotation Zrotation
						JOINT left_shoulder
						{
							OFFSET	-93.9	-5.79999	48.7
							CHANNELS 3  Xrotation Yrotation Zrotation
							JOINT left_elbow
							{
								OFFSET	-291.4	-30.8	15.2
								CHANNELS 3  Xrotation Yrotation Zrotation
								JOINT left_lowarm_twist
								{
									OFFSET	-110.7	-3.89999	13.6
									CHANNELS 3  Xrotation Yrotation Zrotation
									JOINT left_hand
									{
										OFFSET	-110.7	-3.89999	13.6
										CHANNELS 3  Xrotation Yrotation Zrotation
										JOINT left_ee
										{
											OFFSET	-80.8	-5.10001	12.1
											CHANNELS 3  Xrotation Yrotation Zrotation
											End Site
											{
												OFFSET	1	0	0
											}
										}
									}
								}
							}
						}
					}
					JOINT right_clavicle
					{
						OFFSET	43.2	22.4	-70.8
						CHANNELS 3  Xrotation Yrotation Zrotation
						JOINT right_shoulder
						{
							OFFSET	93.9	-5.79999	48.7
							CHANNELS 3  Xrotation Yrotation Zrotation
							JOINT right_elbow
							{
								OFFSET	291.4	-30.8	15.2
								CHANNELS 3  Xrotation Yrotation Zrotation
								JOINT right_lowarm_twist
								{
									OFFSET	110.7	-3.89999	13.6
									CHANNELS 3  Xrotation Yrotation Zrotation
									JOINT right_hand
									{
										OFFSET	110.7	-3.89999	13.6
										CHANNELS 3  Xrotation Yrotation Zrotation
										JOINT right_ee
										{
											OFFSET	80.8	-5.10001	12.1
											CHANNELS 3  Xrotation Yrotation Zrotation
											End Site
											{
												OFFSET	1	0	0
											}
										}
									}
								}
							}
						}
					}
				}
			}
		}
	}
	JOINT left_hip
	{
		OFFSET	-82.8	-127.5	0.300001
		CHANNELS 3  Xrotation Yrotation Zrotation
		JOINT left_knee
		{
			OFFSET	-28.2	-396.7	2.2
			CHANNELS 3  Xrotation Yrotation Zrotation
			JOINT left_ankle
			{
				OFFSET	-11.7	-411.3	35.4
				CHANNELS 3  Xrotation Yrotation Zrotation
				JOINT left_toes
				{
					OFFSET	0	-60	-88.6
					CHANNELS 3  Xrotation Yrotation Zrotation
					JOINT left_foot_ee
					{
						OFFSET	-22.5	-16.5	-42.2
						CHANNELS 3  Xrotation Yrotation Zrotation
						End Site
						{
							OFFSET	1	0	0
						}
					}
				}
			}
		}
	}
	JOINT right_hip
	{
		OFFSET	82.8	-127.5	0.300001
		CHANNELS 3  Xrotation Yrotation Zrotation
		JOINT right_knee
		{
			OFFSET	28.2	-396.7	2.2
			CHANNELS 3  Xrotation Yrotation Zrotation
			JOINT right_ankle
			{
				OFFSET	11.7	-411.3	35.4
				CHANNELS 3  Xrotation Yrotation Zrotation
				JOINT right_toes
				{
					OFFSET	0	-60	-88.6
					CHANNELS 3  Xrotation Yrotation Zrotation
					JOINT right_foot_ee
					{
						OFFSET	22.5	-16.5	-42.2
						CHANNELS 3  Xrotation Yrotation Zrotation
						End Site
						{
							OFFSET	1	0	0
						}
					}
				}
			}
		}
	}
}
MOTION
Frames: 11
Frame Time: 0.02
552.361062811 712.104 -1110.30569224 -150.004195449 -21.277338719 -163.429845483 11.7911 -0.222906 -0.302683 11.7911 -0.203194 -0.316254 11.7921 -0.201314 -0.317454 11.7921 -0.248923 -0.281676 -19.0515 6.52864 -4.50411 -19.3007 14.9303 -1.53837 -0.0 0.0 -0.0 4.11092 16.6144 8.3873 -78.0385 -65.865 10.7652 0.458299 -12.7911 0.0513707 -82.2477 -8.10623 5.24384 3.70058 -18.2017 17.1205 -0.0 0.0 -0.0 10.9679 6.72949 -21.9449 -68.7414 58.1019 -40.4257 0.301582 8.49704 -0.0224036 -22.4671 1.30734 -2.53951 -5.50793 14.2922 48.2961 0.0 0.0 0.0 38.967 37.3584 -7.42085 -24.9249 0.204768 3.7894 40.0004 -1.51107 -4.88876 -2.25771 0.0 0.0 -0.0 0.0 -0.0 44.6622 9.77389 -4.8808 -26.0996 -0.173592 -3.96697 38.0241 -23.4727 4.92891 16.4529 -0.0 -0.0 0.0 0.0 0.0 
562.040008048 713.35 -1103.54758212 -151.496233248 -19.9874157431 -165.124052017 11.5082 -0.0273668 -0.340895 11.5083 -0.00561939 -0.341945 11.5081 -0.00189176 -0.341986 11.508 -0.0558781 -0.337396 -21.2425 6.72697 -3.30128 -21.559 14.5774 -0.0599833 -0.0 0.0 -0.0 4.84757 16.0933 9.56121 -74.0656 -63.2085 13.2066 0.551054 -15.2686 0.0738626 -81.29 -7.98525 5.26051 3.31008 -13.2097 16.8824 -0.0 0.0 -0.0 10.8876 6.1989 -21.7594 -67.0029 55.5899 -42.2132 0.338285 9.51322 -0.0281486 -24.2251 1.45014 -2.71371 -4.97439 16.2751 44.1648 0.0 0.0 0.0 32.958 37.1593 -4.66448 -19.2225 0.30408 2.92036 39.4359 -5.25156 -4.88654 -2.08078 0.0 0.0 -0.0 0.0 -0.0 44.9633 7.48033 -4.2388 -24.911 -0.205116 -3.78728 35.1557 -18.9852 4.53671 13.6532 -0.0 -0.0 0.0 0.0 0.0 
570.631769389 714.389 -1090.73642434 -152.992276035 -19.4503805336 -166.473800172 11.2073 -0.072284 -0.321234 11.2074 -0.0516967 -0.325182 11.2075 -0.0464401 -0.325974 11.2074 -0.0973386 -0.314549 -21.9683 8.34038 -1.94479 -22.458 17.0057 2.05856 -0.0 0.0 -0.0 4.76177 14.7815 9.433 -77.9232 -64.3929 9.0715 0.518254 -14.3986 0.0654649 -80.3474 -7.86589 5.27493 2.65114 -10.8788 13.3759 -0.0 0.0 -0.0 10.7297 6.13159 -21.4144 -69.0386 57.4908 -40.7505 0.283785 8.00232 -0.01985 -24.4946 1.47249 -2.74003 -4.11188 17.0574 37.0581 0.0 0.0 0.0 30.701 42.7024 -4.6765 -17.6782 0.31605 2.68372 38.7941 -7.43637 -4.86725 -0.497402 0.0 0.0 -0.0 0.0 -0.0 46.4458 5.73125 -4.05042 -24.5692 -0.213489 -3.73551 31.0232 -14.3766 4.03903 12.4367 -0.0 -0.0 0.0 0.0 0.0 
582.718298319 715.464 -1079.73880242 -154.372236052 -19.7550321143 -167.429497782 11.0211 0.0981656 -0.413168 11.0212 0.124257 -0.406085 11.0201 0.132122 -0.403594 11.0199 0.0667244 -0.419395 -23.0527 8.62519 -2.11544 -23.6186 17.5938 2.21118 -0.0 0.0 -0.0 6.10356 14.6795 11.6447 -73.8979 -61.1586 12.5568 0.551208 -15.2726 0.073903 -77.2239 -7.46871 5.3085 2.20737 -12.7592 9.47905 -0.0 0.0 -0.0 10.8012 6.27197 -21.5726 -71.4534 58.3796 -40.5394 0.255385 7.21036 -0.0160906 -27.3406 1.71613 -3.01147 -2.89687 21.2729 29.23 0.0 0.0 0.0 26.8167 42.5401 -3.14568 -16.5549 0.320748 2.51144 38.2961 -7.77905 -4.82916 -1.36225 0.0 0.0 -0.0 0.0 -0.0 46.7595 7.52014 -4.58416 -21.2796 -0.278236 -3.23493 27.2786 -11.8348 3.60624 14.0588 -0.0 -0.0 0.0 0.0 0.0 
586.702055277 715.956 -1079.04812355 -154.725326182 -21.1039691548 -167.807947102 10.9107 -0.0268116 -0.178628 10.9107 -0.0153907 -0.179972 10.9107 -0.0115491 -0.180259 10.9106 -0.0398727 -0.176173 -25.2423 8.84019 0.107616 -25.8545 16.9845 4.71679 -0.0 0.0 -0.0 6.05342 13.678 11.5972 -76.7517 -61.9668 7.5291 0.550216 -15.2464 0.0736418 -77.3666 -7.48691 5.30745 1.49435 -8.48037 6.50243 -0.0 0.0 -0.0 11.092 5.45699 -22.1872 -69.0033 56.9996 -43.3144 0.198059 5.60364 -0.00969304 -27.7762 1.7546 -3.05194 -1.50511 22.2564 19.6399 0.0 0.0 0.0 23.2102 44.0372 -1.25488 -12.6816 0.31104 1.91735 38.7446 -11.1896 -4.94486 1.74736 -0.0 -0.0 -0.0 0.0 -0.0 47.6032 6.10066 -5.29514 -20.078 -0.294703 -3.0513 22.7105 -12.5197 3.07584 14.5586 -0.0 -0.0 0.0 0.0 0.0 
598.440246277 712.718 -1075.89709876 -156.490923126 -21.890399151 -169.041877041 10.4051 0.0160623 0.0484142 10.4051 0.012949 0.0493382 10.4051 0.0114557 0.0497061 10.4051 0.0191621 0.0472731 -25.0022 7.9101 0.220913 -25.4782 15.1508 4.27822 -0.0 0.0 -0.0 6.69804 10.0407 12.8403 -74.3541 -60.9514 9.37803 0.485219 -13.5156 0.0574968 -74.9065 -7.17293 5.31927 0.612011 -1.94802 3.28422 -0.0 0.0 -0.0 11.2046 6.43529 -22.4578 -68.6481 56.6883 -44.2825 0.188321 5.32975 -0.00876531 -27.7639 1.75351 -3.0508 0.010365 22.0205 9.28865 0.0 0.0 0.0 16.5597 47.6474 2.4808 -9.46364 0.272462 1.42517 38.6999 -13.664 -5.00821 1.3813 -0.0 -0.0 -0.0 0.0 -0.0 49.5713 5.11353 -5.71445 -19.243 -0.303877 -2.9235 14.2822 -14.3669 2.01224 15.9926 -0.0 -0.0 0.0 0.0 0.0 
609.932308306 713.762 -1071.76258109 -157.159763837 -22.366376056 -168.941975421 10.1949 0.100061 0.118703 10.1949 0.0923051 0.12483 10.1951 0.088032 0.127879 10.1951 0.107123 0.112371 -24.8507 8.42283 0.432641 -25.3813 16.0498 4.72669 -0.0 0.0 -0.0 6.67055 9.25767 12.8173 -72.4788 -59.9278 10.1067 0.525149 -14.5821 0.0671903 -74.2596 -7.09028 5.32013 -0.150954 1.83052 -0.233159 -0.0 0.0 -0.0 11.3767 6.19448 -22.8301 -69.42 55.5247 -43.9748 0.179793 5.08971 -0.00799103 -27.1964 1.70346 -2.998 1.02595 26.2013 4.43871 0.0 0.0 0.0 14.2247 48.7758 3.3625 -8.57066 0.256861 1.28903 36.8497 -11.7228 -4.78375 3.39853 -0.0 -0.0 -0.0 0.0 -0.0 50.2448 3.70731 -5.88271 -19.0058 -0.306144 -2.88717 6.39946 -11.4816 0.92196 18.3394 -0.0 -0.0 0.0 0.0 0.0 
629.905207751 712.958 -1068.03076181 -157.913398372 -22.518271439 -169.564311767 9.77328 0.204418 0.188955 9.77328 0.19198 0.20158 9.77394 0.183523 0.209309 9.77394 0.214276 0.177699 -24.282 8.4563 -0.752232 -24.8346 16.6271 3.56789 -0.0 0.0 -0.0 6.64513 10.3049 12.737 -66.4576 -61.037 13.7375 0.5519 -15.2909 0.0740853 -75.3755 -7.23284 5.31807 -1.11732 13.7032 -1.36619 -0.0 0.0 -0.0 11.6163 6.665 -23.3705 -70.3401 54.2717 -43.2634 0.185463 5.24932 -0.00850182 -27.2205 1.70558 -3.00026 2.8498 25.1911 -7.82256 0.0 0.0 0.0 11.0012 47.2938 5.50992 -8.73801 0.259946 1.31453 38.1 -15.1909 -5.00029 2.89271 -0.0 -0.0 -0.0 0.0 -0.0 50.9013 3.03501 -5.58104 -18.1717 -0.312918 -2.75938 0.122321 -13.6037 0.0179694 19.2517 -0.0 -0.0 0.0 0.0 0.0 
642.821755517 714.122 -1065.02971621 -158.183451865 -23.3699216145 -169.654241052 9.18834 0.293405 0.282294 9.18834 0.274848 0.300392 9.18974 0.259067 0.314104 9.18974 0.305422 0.269247 -23.4651 6.77641 -0.442583 -23.795 13.2698 2.87573 -0.0 0.0 -0.0 7.01317 12.3356 13.2942 -65.2628 -61.1663 11.6061 0.469945 -13.1051 0.0539803 -74.8679 -7.16799 5.31935 -3.16705 22.4336 -9.44682 -0.0 0.0 -0.0 11.6085 6.45401 -23.3478 -70.4646 53.3292 -42.5812 0.197713 5.59392 -0.00965931 -26.6466 1.65547 -2.94638 4.02636 28.34 -13.7617 0.0 0.0 0.0 9.16403 48.174 6.91857 -8.54726 0.256424 1.28547 34.5945 -15.7392 -4.67786 3.04399 -0.0 -0.0 -0.0 0.0 -0.0 50.4782 2.71943 -5.15322 -15.6712 -0.32207 -2.37586 -5.65157 -10.8899 -0.837514 20.6923 -0.0 -0.0 0.0 0.0 0.0 
652.445213903 714.227 -1063.4012489 -157.9898194 -25.2339825904 -168.561957752 8.88482 0.227312 0.139331 8.8848 0.217986 0.153513 8.8854 0.208941 0.165614 8.88544 0.232474 0.130537 -23.6474 8.93483 -1.59635 -24.2651 17.9352 2.94408 -0.0 0.0 -0.0 6.69936 10.8458 12.813 -63.4882 -60.8654 12.149 0.522871 -14.5215 0.0666178 -70.9213 -6.66366 5.30958 -5.31512 29.2177 -17.4051 -0.0 0.0 -0.0 11.642 4.90156 -23.3716 -66.6624 50.1659 -44.6891 0.174718 4.94675 -0.00754696 -28.1229 1.78544 -3.08394 5.37877 26.8637 -23.6723 0.0 0.0 0.0 7.04855 47.7875 7.67894 -5.86785 0.196738 0.87866 32.0657 -18.6731 -4.51099 0.411614 -0.0 -0.0 -0.0 0.0 -0.0 51.4128 1.92648 -5.99423 -14.9199 -0.321549 -2.26059 -12.3929 -11.3157 -1.85488 21.2615 -0.0 -0.0 0.0 0.0 0.0 
666.697599543 709.335 -1063.54528487 -157.920975053 -26.1888489015 -168.194024789 8.78157 0.304501 0.205003 8.78154 0.290839 0.223964 8.7827 0.277258 0.240574 8.78276 0.311772 0.193767 -22.7735 9.22965 -2.17127 -23.4119 18.7941 2.42337 -0.0 0.0 -0.0 7.08656 12.3478 13.4209 -51.4702 -55.1032 20.6918 0.844835 -22.7094 0.169657 -74.1119 -7.07139 5.32019 -5.67155 29.2082 -19.4561 -0.0 0.0 -0.0 11.5392 5.68078 -23.1728 -68.8343 51.5912 -43.145 0.196868 5.57016 -0.00957706 -25.1832 1.53019 -2.8068 6.67897 27.0992 -32.7136 0.0 0.0 0.0 5.14687 47.1536 9.01511 -5.0727 0.175368 0.758503 33.8359 -17.758 -4.66727 -0.317537 0.0 0.0 -0.0 0.0 -0.0 52.0545 1.32175 -6.94929 -9.75262 -0.277055 -1.46927 -21.9626 -7.88172 -3.30356 19.6084 -0.0 -0.0 0.0 0.0 0.0 
